<?xml version="1.0" encoding="utf-8"?>
<!-- Generator: Adobe Illustrator 24.1.2, SVG Export Plug-In . SVG Version: 6.00 Build 0)  -->
<svg version="1.1" id="Livello_1" xmlns="http://www.w3.org/2000/svg" xmlns:xlink="http://www.w3.org/1999/xlink" x="0px" y="0px"
	 viewBox="0 0 381 313" style="enable-background:new 0 0 381 313;" xml:space="preserve">
<style type="text/css">
	.st0{fill:#FFFFFF;}
	.st1{fill:#FFFFFF;stroke:#FFFFFF;stroke-width:4;stroke-miterlimit:10;}
</style>
<path class="st1" d="M352.5,22.7H381c0,0-0.3,55.1-19.4,84.8c-19.1,29.7-45.1,65.7-56.9,72.1s-71.8,0-71.8,0v51.8
	c0,0-0.9,13.6-13.6,16.3s-51.8,0-51.8,0s-12.7-7.3-12.7-18.2c0-10.9,0-38.1,0-38.1l-69.9-0.9c0,0-59.9-56.3-69-71.8
	s-17.3-87.5-14.5-96s18.2,0,18.2,0s2.7,49.7,63.6,69.6s208,4.5,208,4.5S338.6,74.8,352.5,22.7z"/>
</svg>
