<?xml version="1.0" encoding="utf-8"?>
<!-- Generator: Adobe Illustrator 24.1.2, SVG Export Plug-In . SVG Version: 6.00 Build 0)  -->
<svg version="1.1" id="Livello_1" xmlns="http://www.w3.org/2000/svg" xmlns:xlink="http://www.w3.org/1999/xlink" x="0px" y="0px"
	 viewBox="0 0 381 313" style="enable-background:new 0 0 381 313;" xml:space="preserve">
<style type="text/css">
	.st0{fill:#FFFFFF;}
	.st1{fill:none;stroke:#FFFFFF;stroke-width:17;stroke-miterlimit:10;}
</style>
<g>
	<path class="st0" d="M323.4,215.2c-0.2,0-0.5,0-0.7,0L83.1,197.6c-5.5-0.4-9.6-5.2-9.2-10.7c0.4-5.5,5.2-9.6,10.7-9.2l239.5,17.6
		c5.5,0.4,9.6,5.2,9.2,10.7C333,211.2,328.6,215.2,323.4,215.2z"/>
	<path class="st1" d="M323.4,215.2c-0.2,0-0.5,0-0.7,0L83.1,197.6c-5.5-0.4-9.6-5.2-9.2-10.7c0.4-5.5,5.2-9.6,10.7-9.2l239.5,17.6
		c5.5,0.4,9.6,5.2,9.2,10.7C333,211.2,328.6,215.2,323.4,215.2z"/>
</g>
<g>
	<path class="st0" d="M306.8,129.6c-0.2,0-0.5,0-0.7,0L56.9,111.8c-5.5-0.4-9.7-5.2-9.3-10.7c0.4-5.5,5.2-9.6,10.7-9.3l249.2,17.8
		c5.5,0.4,9.7,5.2,9.3,10.7C316.4,125.6,312,129.6,306.8,129.6z"/>
	<path class="st1" d="M306.8,129.6c-0.2,0-0.5,0-0.7,0L56.9,111.8c-5.5-0.4-9.7-5.2-9.3-10.7c0.4-5.5,5.2-9.6,10.7-9.3l249.2,17.8
		c5.5,0.4,9.7,5.2,9.3,10.7C316.4,125.6,312,129.6,306.8,129.6z"/>
</g>
<g>
	<path class="st0" d="M138.2,278.7c-0.3,0-0.7,0-1.1-0.1c-5.5-0.6-9.5-5.5-8.9-11l24.6-233.6c0.6-5.5,5.5-9.5,11-8.9
		c5.5,0.6,9.5,5.5,8.9,11l-24.6,233.6C147.6,274.9,143.3,278.7,138.2,278.7z"/>
	<path class="st1" d="M138.2,278.7c-0.3,0-0.7,0-1.1-0.1c-5.5-0.6-9.5-5.5-8.9-11l24.6-233.6c0.6-5.5,5.5-9.5,11-8.9
		c5.5,0.6,9.5,5.5,8.9,11l-24.6,233.6C147.6,274.9,143.3,278.7,138.2,278.7z"/>
</g>
<g>
	<path class="st0" d="M225.9,287.9c-0.3,0-0.7,0-1.1-0.1c-5.5-0.6-9.5-5.5-8.9-11l23-218.6c0.6-5.5,5.5-9.5,11-8.9
		c5.5,0.6,9.5,5.5,8.9,11l-23,218.6C235.3,284.1,231,287.9,225.9,287.9z"/>
	<path class="st1" d="M225.9,287.9c-0.3,0-0.7,0-1.1-0.1c-5.5-0.6-9.5-5.5-8.9-11l23-218.6c0.6-5.5,5.5-9.5,11-8.9
		c5.5,0.6,9.5,5.5,8.9,11l-23,218.6C235.3,284.1,231,287.9,225.9,287.9z"/>
</g>
</svg>
