<?xml version="1.0" encoding="utf-8"?>
<!-- Generator: Adobe Illustrator 24.1.2, SVG Export Plug-In . SVG Version: 6.00 Build 0)  -->
<svg version="1.1" id="Livello_1" xmlns="http://www.w3.org/2000/svg" xmlns:xlink="http://www.w3.org/1999/xlink" x="0px" y="0px"
	 viewBox="0 0 381 313" style="enable-background:new 0 0 381 313;" xml:space="preserve">
<style type="text/css">
	.st0{fill:#FFFFFF;stroke:#FFFFFF;stroke-width:0.75;stroke-miterlimit:10;}
	.st1{fill:#FFFFFF;stroke:#FFFFFF;stroke-miterlimit:10;}
	.st2{fill:#FFFFFF;}
</style>
<path class="st0" d="M190.1,297.5c-17.8,0-32.4-12.8-32.4-28.6V48.6c0-15.8,14.5-28.6,32.4-28.6s32.4,12.8,32.4,28.6v220.3
	C222.4,284.6,207.9,297.5,190.1,297.5z"/>
<path class="st1" d="M332.5,62.7H47.7C32.4,62.7,20,53.1,20,41.4s12.4-21.3,27.7-21.3h284.8c15.3,0,27.7,9.6,27.7,21.3
	S347.8,62.7,332.5,62.7z"/>
<path class="st2" d="M256.7,140.3H128.5c-12.7,0-23.2-7.3-23.2-16.2s10.3-16.2,23.2-16.2h128.4c12.7,0,23.2,7.3,23.2,16.2
	C279.9,133.1,269.6,140.3,256.7,140.3z"/>
</svg>
