<?xml version="1.0" encoding="utf-8"?>
<!-- Generator: Adobe Illustrator 24.1.2, SVG Export Plug-In . SVG Version: 6.00 Build 0)  -->
<svg version="1.1" id="Livello_1" xmlns="http://www.w3.org/2000/svg" xmlns:xlink="http://www.w3.org/1999/xlink" x="0px" y="0px"
	 viewBox="0 0 340.2 340.2" style="enable-background:new 0 0 340.2 340.2;" xml:space="preserve">
<style type="text/css">
	.st0{fill:#FFFFFF;stroke:#FFFFFF;stroke-width:0.75;stroke-miterlimit:10;}
	.st1{fill:#FFFFFF;stroke:#FFFFFF;stroke-miterlimit:10;}
	.st2{fill:#FFFFFF;}
</style>
<path class="st0" d="M164.8,297.2c-16.4,0-29.8-11.8-29.8-26.3V68.2c0-14.5,13.3-26.3,29.8-26.3s29.8,11.8,29.8,26.3v202.7
	C194.5,285.4,181.2,297.2,164.8,297.2z"/>
<path class="st1" d="M295.8,81.2h-262c-14.1,0-25.5-8.8-25.5-19.6s11.4-19.6,25.5-19.6h262c14.1,0,25.5,8.8,25.5,19.6
	S309.9,81.2,295.8,81.2z"/>
<path class="st2" d="M226.1,152.6H108.1c-11.7,0-21.3-6.7-21.3-14.9c0-8.2,9.5-14.9,21.3-14.9h118.1c11.7,0,21.3,6.7,21.3,14.9
	C247.4,146,237.9,152.6,226.1,152.6z"/>
</svg>
