<svg id="Livello_1" data-name="Livello 1" xmlns="http://www.w3.org/2000/svg" viewBox="0 0 381 313"><defs><style>.cls-1{fill:#fff;}.cls-2{fill:none;stroke:#fff;stroke-miterlimit:10;stroke-width:2px;}</style></defs><path class="cls-1" d="M348.08,265.07a1.49,1.49,0,0,1-1.5-1.45l-.9-34.09L337,209.42a1.46,1.46,0,0,1-.12-.51l-.61-10-3.64-24.27a1.51,1.51,0,0,1,.72-1.51l21.6-12.78a1.5,1.5,0,0,1,1.52,2.58l-20.73,12.26,3.51,23.34s0,.09,0,.13l.59,9.78,8.72,20.14a1.47,1.47,0,0,1,.12.55l.91,34.37a1.49,1.49,0,0,1-1.45,1.54Z"/><path class="cls-2" d="M348.08,265.07a1.49,1.49,0,0,1-1.5-1.45l-.9-34.09L337,209.42a1.46,1.46,0,0,1-.12-.51l-.61-10-3.64-24.27a1.51,1.51,0,0,1,.72-1.51l21.6-12.78a1.5,1.5,0,0,1,1.52,2.58l-20.73,12.26,3.51,23.34s0,.09,0,.13l.59,9.78,8.72,20.14a1.47,1.47,0,0,1,.12.55l.91,34.37a1.49,1.49,0,0,1-1.45,1.54Z"/><path class="cls-1" d="M309.75,275.64H296.67a1.5,1.5,0,0,1-1.36-.87l-4.87-10.57a1.5,1.5,0,0,1,.64-1.94l17.64-9.73a1.5,1.5,0,1,1,1.45,2.62l-16.43,9.06,3.89,8.44h11.51l12.7-12.35-2.31-15.05-5.1-24.59L300.28,199c0-.05-9.63-12.81-17.65-12.69-2.37,0-4.34,1.21-6,3.61-8.32,11.81-10.07,22.92-10.07,30.17a2.71,2.71,0,0,0,.83,2.18c1.07.94,3,1,3.94.92l18.93-9.31a1.49,1.49,0,0,1,1.32,2.68L272.39,226a1.53,1.53,0,0,1-.46.14c-.42.06-4.13.5-6.53-1.6a5.67,5.67,0,0,1-1.86-4.44c0-7.68,1.84-19.44,10.61-31.89,2.26-3.2,5.09-4.84,8.44-4.89h.13c9.52,0,19.59,13.41,20,14l14.35,22a1.53,1.53,0,0,1,.21.51l5.17,24.95,2.45,15.89a1.5,1.5,0,0,1-.44,1.3l-13.69,13.31A1.49,1.49,0,0,1,309.75,275.64Z"/><path class="cls-2" d="M309.75,275.64H296.67a1.5,1.5,0,0,1-1.36-.87l-4.87-10.57a1.5,1.5,0,0,1,.64-1.94l17.64-9.73a1.5,1.5,0,1,1,1.45,2.62l-16.43,9.06,3.89,8.44h11.51l12.7-12.35-2.31-15.05-5.1-24.59L300.28,199c0-.05-9.63-12.81-17.65-12.69-2.37,0-4.34,1.21-6,3.61-8.32,11.81-10.07,22.92-10.07,30.17a2.71,2.71,0,0,0,.83,2.18c1.07.94,3,1,3.94.92l18.93-9.31a1.49,1.49,0,0,1,1.32,2.68L272.39,226a1.53,1.53,0,0,1-.46.14c-.42.06-4.13.5-6.53-1.6a5.67,5.67,0,0,1-1.86-4.44c0-7.68,1.84-19.44,10.61-31.89,2.26-3.2,5.09-4.84,8.44-4.89h.13c9.52,0,19.59,13.41,20,14l14.35,22a1.53,1.53,0,0,1,.21.51l5.17,24.95,2.45,15.89a1.5,1.5,0,0,1-.44,1.3l-13.69,13.31A1.49,1.49,0,0,1,309.75,275.64Z"/><path class="cls-1" d="M265,265.07a1.49,1.49,0,0,1-1.34-2.15l6.66-13.61c-1.55-2.65-8.83-12.88-28.76-13.14-11.85-.15-15.19-.78-18.73-1.45s-7.1-1.34-20-1.59h-.43c-12.95,0-21.54,11.44-21.63,11.56a1.5,1.5,0,0,1-2.41-1.77c.39-.53,9.55-12.79,24-12.79h.49c13.2.25,16.94,1,20.55,1.64,3.4.64,6.62,1.25,18.21,1.4,24.39.31,31.47,14.85,31.76,15.46a1.52,1.52,0,0,1,0,1.3l-7,14.29A1.5,1.5,0,0,1,265,265.07Z"/><path class="cls-2" d="M265,265.07a1.49,1.49,0,0,1-1.34-2.15l6.66-13.61c-1.55-2.65-8.83-12.88-28.76-13.14-11.85-.15-15.19-.78-18.73-1.45s-7.1-1.34-20-1.59h-.43c-12.95,0-21.54,11.44-21.63,11.56a1.5,1.5,0,0,1-2.41-1.77c.39-.53,9.55-12.79,24-12.79h.49c13.2.25,16.94,1,20.55,1.64,3.4.64,6.62,1.25,18.21,1.4,24.39.31,31.47,14.85,31.76,15.46a1.52,1.52,0,0,1,0,1.3l-7,14.29A1.5,1.5,0,0,1,265,265.07Z"/><path class="cls-1" d="M155.44,253.53l-.63,0c-6.88-.51-13.3-9.83-18.46-17.31-1.61-2.35-3-4.37-4.18-5.77a7.64,7.64,0,0,1-1.92-5.94c.5-4.38,4.73-7.61,4.91-7.74.46-.34,44.15-31.76,59.65-51.15s24.41-14.87,25.67-14c1.78.92,23.61,12.35,29,22.17,4.88,8.92,4.73,21.37,4.63,29.61,0,1.09,0,2.11,0,3,0,8.64-9.14,14.41-9.53,14.65A1.5,1.5,0,0,1,243,218.5c.08-.05,8.12-5.15,8.12-12.11,0-.95,0-2,0-3.09.1-7.92.25-19.9-4.25-28.14-5.05-9.22-27.59-20.86-27.81-21l-.23-.14c-.05,0-7.16-4.68-21.65,13.43-15.76,19.71-58.41,50.4-60.22,51.69,0,0-3.36,2.58-3.71,5.68a4.69,4.69,0,0,0,1.25,3.67c1.26,1.51,2.69,3.58,4.35,6,4.54,6.59,10.76,15.62,16.21,16a2.57,2.57,0,0,0,2.51-.83c1.7-2.2.25-8.08-.39-10a1.49,1.49,0,1,1,2.83-1c.31.9,2.91,8.9-.07,12.76A5.36,5.36,0,0,1,155.44,253.53Z"/><path class="cls-2" d="M155.44,253.53l-.63,0c-6.88-.51-13.3-9.83-18.46-17.31-1.61-2.35-3-4.37-4.18-5.77a7.64,7.64,0,0,1-1.92-5.94c.5-4.38,4.73-7.61,4.91-7.74.46-.34,44.15-31.76,59.65-51.15s24.41-14.87,25.67-14c1.78.92,23.61,12.35,29,22.17,4.88,8.92,4.73,21.37,4.63,29.61,0,1.09,0,2.11,0,3,0,8.64-9.14,14.41-9.53,14.65A1.5,1.5,0,0,1,243,218.5c.08-.05,8.12-5.15,8.12-12.11,0-.95,0-2,0-3.09.1-7.92.25-19.9-4.25-28.14-5.05-9.22-27.59-20.86-27.81-21l-.23-.14c-.05,0-7.16-4.68-21.65,13.43-15.76,19.71-58.41,50.4-60.22,51.69,0,0-3.36,2.58-3.71,5.68a4.69,4.69,0,0,0,1.25,3.67c1.26,1.51,2.69,3.58,4.35,6,4.54,6.59,10.76,15.62,16.21,16a2.57,2.57,0,0,0,2.51-.83c1.7-2.2.25-8.08-.39-10a1.49,1.49,0,1,1,2.83-1c.31.9,2.91,8.9-.07,12.76A5.36,5.36,0,0,1,155.44,253.53Z"/><path class="cls-1" d="M196.29,193.08l-.06,0-9.43-9.28a.08.08,0,0,1,.11-.11l9.39,9.24c1.83-.89,6.44-3.29,6.56-4.23a.19.19,0,0,0-.07-.18c-1.06-.93-.07-13.52,0-14.06,0,0,0-.07.08-.07a.07.07,0,0,1,.07.08c-.29,3.63-.85,13.2,0,13.93a.35.35,0,0,1,.12.32c-.17,1.23-6.43,4.25-6.7,4.37Z"/><path class="cls-2" d="M196.29,193.08l-.06,0-9.43-9.28a.08.08,0,0,1,.11-.11l9.39,9.24c1.83-.89,6.44-3.29,6.56-4.23a.19.19,0,0,0-.07-.18c-1.06-.93-.07-13.52,0-14.06,0,0,0-.07.08-.07a.07.07,0,0,1,.07.08c-.29,3.63-.85,13.2,0,13.93a.35.35,0,0,1,.12.32c-.17,1.23-6.43,4.25-6.7,4.37Z"/><path class="cls-1" d="M184.73,205.86h-5.17l-.05,0-9.74-7.45a.08.08,0,0,1,.1-.13l9.71,7.44h5.09l2.1-5.69-7.28-9.09a.08.08,0,0,1,0-.11.08.08,0,0,1,.11,0l7.3,9.13a.08.08,0,0,1,0,.08l-2.13,5.78A.08.08,0,0,1,184.73,205.86Z"/><path class="cls-2" d="M184.73,205.86h-5.17l-.05,0-9.74-7.45a.08.08,0,0,1,.1-.13l9.71,7.44h5.09l2.1-5.69-7.28-9.09a.08.08,0,0,1,0-.11.08.08,0,0,1,.11,0l7.3,9.13a.08.08,0,0,1,0,.08l-2.13,5.78A.08.08,0,0,1,184.73,205.86Z"/><path class="cls-1" d="M322,149.58c-1.11,0-2.29,0-3.54-.1-34.38-1.88-36-18.33-36.09-19a1.61,1.61,0,0,1,.08-.61l17.26-49v-32a1.5,1.5,0,1,1,3,0V81.06a1.43,1.43,0,0,1-.09.5l-17.21,48.92c.4,2,4.07,14.42,33.22,16,12.81.7,17.52-2.7,17.57-2.74a1.5,1.5,0,0,1,2.09.29,1.48,1.48,0,0,1-.26,2.08C337.85,146.27,333.49,149.58,322,149.58Z"/><path class="cls-2" d="M322,149.58c-1.11,0-2.29,0-3.54-.1-34.38-1.88-36-18.33-36.09-19a1.61,1.61,0,0,1,.08-.61l17.26-49v-32a1.5,1.5,0,1,1,3,0V81.06a1.43,1.43,0,0,1-.09.5l-17.21,48.92c.4,2,4.07,14.42,33.22,16,12.81.7,17.52-2.7,17.57-2.74a1.5,1.5,0,0,1,2.09.29,1.48,1.48,0,0,1-.26,2.08C337.85,146.27,333.49,149.58,322,149.58Z"/><path class="cls-1" d="M238,113a1.42,1.42,0,0,1-.53-.1,1.5,1.5,0,0,1-.87-1.93l10.81-28.52c-.59-3.36-5.62-28.45-24.79-34.93-20.43-6.91-67.47-17.79-71.66-18.75-4.76.84-64.67,11.7-77.42,23.59C61.6,63.45,63,70.78,63.22,71.65L73.49,90.07a1.5,1.5,0,0,1-2.62,1.45L60.53,73a2,2,0,0,1-.1-.21c-.14-.37-3.22-9.3,11-22.6C85.32,37.22,148,26.21,150.71,25.74a1.68,1.68,0,0,1,.59,0c.5.12,50.81,11.66,72.23,18.9,22.22,7.51,26.68,36.48,26.86,37.71a1.44,1.44,0,0,1-.08.74L239.36,112A1.51,1.51,0,0,1,238,113Z"/><path class="cls-2" d="M238,113a1.42,1.42,0,0,1-.53-.1,1.5,1.5,0,0,1-.87-1.93l10.81-28.52c-.59-3.36-5.62-28.45-24.79-34.93-20.43-6.91-67.47-17.79-71.66-18.75-4.76.84-64.67,11.7-77.42,23.59C61.6,63.45,63,70.78,63.22,71.65L73.49,90.07a1.5,1.5,0,0,1-2.62,1.45L60.53,73a2,2,0,0,1-.1-.21c-.14-.37-3.22-9.3,11-22.6C85.32,37.22,148,26.21,150.71,25.74a1.68,1.68,0,0,1,.59,0c.5.12,50.81,11.66,72.23,18.9,22.22,7.51,26.68,36.48,26.86,37.71a1.44,1.44,0,0,1-.08.74L239.36,112A1.51,1.51,0,0,1,238,113Z"/><path class="cls-1" d="M216.06,130.62l-.32,0a1.5,1.5,0,0,1-1.14-1.78l6.08-28.29a1.49,1.49,0,0,1,.2-.49c0-.07,5.66-10.86-26.8-32-19.45-12.68-53.46-12-67-8-18.52,5.39-25.11,12.44-27.37,17.41a11.62,11.62,0,0,0-.59,9.12,1.62,1.62,0,0,1,.12.43,142.23,142.23,0,0,0,8.42,31.27,1.5,1.5,0,0,1-2.77,1.13,146.43,146.43,0,0,1-8.59-31.81A14.89,14.89,0,0,1,97,76.15c3.68-8.05,13.52-14.46,29.26-19,14-4.08,49.29-4.78,69.51,8.4,32.9,21.44,28.84,33.8,27.84,35.84l-6,28.09A1.49,1.49,0,0,1,216.06,130.62Z"/><path class="cls-2" d="M216.06,130.62l-.32,0a1.5,1.5,0,0,1-1.14-1.78l6.08-28.29a1.49,1.49,0,0,1,.2-.49c0-.07,5.66-10.86-26.8-32-19.45-12.68-53.46-12-67-8-18.52,5.39-25.11,12.44-27.37,17.41a11.62,11.62,0,0,0-.59,9.12,1.62,1.62,0,0,1,.12.43,142.23,142.23,0,0,0,8.42,31.27,1.5,1.5,0,0,1-2.77,1.13,146.43,146.43,0,0,1-8.59-31.81A14.89,14.89,0,0,1,97,76.15c3.68-8.05,13.52-14.46,29.26-19,14-4.08,49.29-4.78,69.51,8.4,32.9,21.44,28.84,33.8,27.84,35.84l-6,28.09A1.49,1.49,0,0,1,216.06,130.62Z"/><path class="cls-1" d="M31.34,94A2,2,0,0,1,31,94c-.46-.11-11.43-2.8-20.1-16.86a1.5,1.5,0,1,1,2.55-1.57C20.07,86.29,28.19,89.88,30.82,90.8l8.15-10V74.42L24.82,65.28a1.5,1.5,0,0,1,1.63-2.51l14.83,9.58A1.52,1.52,0,0,1,42,73.61v7.76a1.49,1.49,0,0,1-.34.94L32.5,93.48A1.51,1.51,0,0,1,31.34,94Z"/><path class="cls-2" d="M31.34,94A2,2,0,0,1,31,94c-.46-.11-11.43-2.8-20.1-16.86a1.5,1.5,0,1,1,2.55-1.57C20.07,86.29,28.19,89.88,30.82,90.8l8.15-10V74.42L24.82,65.28a1.5,1.5,0,0,1,1.63-2.51l14.83,9.58A1.52,1.52,0,0,1,42,73.61v7.76a1.49,1.49,0,0,1-.34.94L32.5,93.48A1.51,1.51,0,0,1,31.34,94Z"/></svg>